<svg xmlns="http://www.w3.org/2000/svg" width="1771.855224609375" height="259.4659423828125" viewBox="-1155.724365234375 -293.74029541015625 1771.855224609375 259.4659423828125"><title>Neo4j Graph Visualization</title><desc>Created using Neo4j (http://www.neo4j.com/)</desc><g class="layer relationships"><g class="relationship" transform="translate(431.9660972435103 -256.27139253545516) rotate(449.4266916129432)"><path class="outline" fill="#A5ABB6" stroke="none" d="M 32.5 1 L 43.627844466673835 1 L 43.627844466673835 -1 L 32.5 -1 Z M 133.49893821667382 1 L 144.62678268334767 1 L 144.62678268334767 4 L 152.62678268334767 0 L 144.62678268334767 -4 L 144.62678268334767 -1 L 133.49893821667382 -1 Z"/><text text-anchor="middle" pointer-events="none" font-size="8px" fill="#000000" x="88.56339134167384" y="3" font-family="sans-serif">PARTICIPATES_GpPW</text></g><g class="relationship" transform="translate(-381.5568520300089 -255.3759928347032) rotate(449.4876627939274)"><path class="outline" fill="#A5ABB6" stroke="none" d="M 32.5 1 L 48.004619406577845 1 L 48.004619406577845 -1 L 32.5 -1 Z M 125.43430690657785 1 L 140.9389263131557 1 L 140.9389263131557 4 L 148.9389263131557 0 L 140.9389263131557 -4 L 140.9389263131557 -1 L 125.43430690657785 -1 Z"/><text text-anchor="middle" pointer-events="none" font-size="8px" fill="#000000" x="86.71946315657785" y="3" font-family="sans-serif">ASSOCIATES_DaG</text></g><g class="relationship" transform="translate(-1046.5343070667886 -257.2403003118753) rotate(449.33490191424244)"><path class="outline" fill="#A5ABB6" stroke="none" d="M 32.5 1 L 49.51078665712933 1 L 49.51078665712933 -1 L 32.5 -1 Z M 124.43266165712933 1 L 141.44344831425866 1 L 141.44344831425866 4 L 149.44344831425866 0 L 141.44344831425866 -4 L 141.44344831425866 -1 L 124.43266165712933 -1 Z"/><text text-anchor="middle" pointer-events="none" font-size="8px" fill="#000000" x="86.97172415712933" y="3" font-family="sans-serif">EXPRESSES_AeG</text></g><g class="relationship" transform="translate(-454.8534594158134 -256.01421801529875) rotate(449.69252282376254)"><path class="outline" fill="#A5ABB6" stroke="none" d="M 32.5 1 L 43.97215607402869 1 L 43.97215607402869 -1 L 32.5 -1 Z M 129.8471560740287 1 L 141.31931214805738 1 L 141.31931214805738 4 L 149.31931214805738 0 L 141.31931214805738 -4 L 141.31931214805738 -1 L 129.8471560740287 -1 Z"/><text text-anchor="middle" pointer-events="none" font-size="8px" fill="#000000" x="86.90965607402869" y="3" font-family="sans-serif">UPREGULATES_CuG</text></g><g class="relationship" transform="translate(60.043796823064525 -255.45493678292576) rotate(449.6744814522946)"><path class="outline" fill="#A5ABB6" stroke="none" d="M 32.5 1 L 52.201334235776045 1 L 52.201334235776045 -1 L 32.5 -1 Z M 119.84586548577605 1 L 139.5471997215521 1 L 139.5471997215521 4 L 147.5471997215521 0 L 139.5471997215521 -4 L 139.5471997215521 -1 L 119.84586548577605 -1 Z"/><text text-anchor="middle" pointer-events="none" font-size="8px" fill="#000000" x="86.02359986077605" y="3" font-family="sans-serif">COVARIES_GcG</text></g><g class="relationship" transform="translate(-1119.2243663753552 -257.0162701984454) rotate(449.74810380442307)"><path class="outline" fill="#A5ABB6" stroke="none" d="M 32.5 1 L 36.75267719353893 1 L 36.75267719353893 -1 L 32.5 -1 Z M 136.40111469353894 1 L 140.65379188707786 1 L 140.65379188707786 4 L 148.65379188707786 0 L 140.65379188707786 -4 L 140.65379188707786 -1 L 136.40111469353894 -1 Z"/><text text-anchor="middle" pointer-events="none" font-size="8px" fill="#000000" x="86.57689594353893" y="3" font-family="sans-serif">DOWNREGULATES_AdG</text></g><g class="relationship" transform="translate(-234.67745402323965 -256.74989171939046) rotate(449.527771094502)"><path class="outline" fill="#A5ABB6" stroke="none" d="M 32.5 1 L 54.677179616118735 1 L 54.677179616118735 -1 L 32.5 -1 Z M 122.03264836611874 1 L 144.20982798223747 1 L 144.20982798223747 4 L 152.20982798223747 0 L 144.20982798223747 -4 L 144.20982798223747 -1 L 122.03264836611874 -1 Z"/><text text-anchor="middle" pointer-events="none" font-size="8px" fill="#000000" x="88.35491399111874" y="3" font-family="sans-serif">LOCALIZES_DlA</text></g><g class="relationship" transform="translate(-308.015962123668 -255.9835982149619) rotate(449.5678404213048)"><path class="outline" fill="#A5ABB6" stroke="none" d="M 32.5 1 L 37.22184139992268 1 L 37.22184139992268 -1 L 32.5 -1 Z M 137.31168514992268 1 L 142.03352654984536 1 L 142.03352654984536 4 L 150.03352654984536 0 L 142.03352654984536 -4 L 142.03352654984536 -1 L 137.31168514992268 -1 Z"/><text text-anchor="middle" pointer-events="none" font-size="8px" fill="#000000" x="87.26676327492268" y="3" font-family="sans-serif">DOWNREGULATES_DdG</text></g><g class="relationship" transform="translate(-897.8639084206727 -255.00543151405475) rotate(449.9794453809585)"><path class="outline" fill="#A5ABB6" stroke="none" d="M 32.5 1 L 61.82059564253245 1 L 61.82059564253245 -1 L 32.5 -1 Z M 113.16825189253245 1 L 142.4888475350649 1 L 142.4888475350649 4 L 150.4888475350649 0 L 142.4888475350649 -4 L 142.4888475350649 -1 L 113.16825189253245 -1 Z"/><text text-anchor="middle" pointer-events="none" font-size="8px" fill="#000000" x="87.49442376753245" y="3" font-family="sans-serif">BINDS_CbG</text></g><g class="relationship" transform="translate(284.1258447679624 -255.5676710450458) rotate(449.8976900947884)"><path class="outline" fill="#A5ABB6" stroke="none" d="M 32.5 1 L 43.43548383139586 1 L 43.43548383139586 -1 L 32.5 -1 Z M 131.97454633139586 1 L 142.9100301627917 1 L 142.9100301627917 4 L 150.9100301627917 0 L 142.9100301627917 -4 L 142.9100301627917 -1 L 131.97454633139586 -1 Z"/><text text-anchor="middle" pointer-events="none" font-size="8px" fill="#000000" x="87.70501508139586" y="3" font-family="sans-serif">PARTICIPATES_GpCC</text></g><g class="relationship" transform="translate(504.84080267116406 -252.5567635117635) rotate(449.11872995432395)"><path class="outline" fill="#A5ABB6" stroke="none" d="M 32.5 1 L 50.17512617696693 1 L 50.17512617696693 -1 L 32.5 -1 Z M 123.59700117696693 1 L 141.27212735393385 1 L 141.27212735393385 4 L 149.27212735393385 0 L 141.27212735393385 -4 L 141.27212735393385 -1 L 123.59700117696693 -1 Z"/><text text-anchor="middle" pointer-events="none" font-size="8px" fill="#000000" x="86.88606367696693" y="3" font-family="sans-serif">REGULATES_GrG</text></g><g class="relationship" transform="translate(-825.7028920205679 -255.84155192281202) rotate(449.125425869965)"><path class="outline" fill="#A5ABB6" stroke="none" d="M 32.5 1 L 54.461806958773565 1 L 54.461806958773565 -1 L 32.5 -1 Z M 118.25868195877356 1 L 140.22048891754713 1 L 140.22048891754713 4 L 148.22048891754713 0 L 140.22048891754713 -4 L 140.22048891754713 -1 L 118.25868195877356 -1 Z"/><text text-anchor="middle" pointer-events="none" font-size="8px" fill="#000000" x="86.36024445877356" y="3" font-family="sans-serif">CAUSES_CcSE</text></g><g class="relationship" transform="translate(208.9417152737687 -254.93774437827886) rotate(449.0761331731955)"><path class="outline" fill="#A5ABB6" stroke="none" d="M 32.5 1 L 44.26554669441401 1 L 44.26554669441401 -1 L 32.5 -1 Z M 131.921796694414 1 L 143.68734338882803 1 L 143.68734338882803 4 L 151.68734338882803 0 L 143.68734338882803 -4 L 143.68734338882803 -1 L 131.921796694414 -1 Z"/><text text-anchor="middle" pointer-events="none" font-size="8px" fill="#000000" x="88.09367169441401" y="3" font-family="sans-serif">PARTICIPATES_GpBP</text></g><g class="relationship" transform="translate(-160.92302946921254 -255.61903576585738) rotate(449.64409513104346)"><path class="outline" fill="#A5ABB6" stroke="none" d="M 32.5 1 L 52.412275044873354 1 L 52.412275044873354 -1 L 32.5 -1 Z M 121.54508754487335 1 L 141.4573625897467 1 L 141.4573625897467 4 L 149.4573625897467 0 L 141.4573625897467 -4 L 141.4573625897467 -1 L 121.54508754487335 -1 Z"/><text text-anchor="middle" pointer-events="none" font-size="8px" fill="#000000" x="86.97868129487335" y="3" font-family="sans-serif">PRESENTS_DpS</text></g><g class="relationship" transform="translate(578.9820639397982 -251.9449427513492) rotate(449.7935651166715)"><path class="outline" fill="#A5ABB6" stroke="none" d="M 32.5 1 L 47.09712235695619 1 L 47.09712235695619 -1 L 32.5 -1 Z M 124.96821610695619 1 L 139.56533846391238 1 L 139.56533846391238 4 L 147.56533846391238 0 L 139.56533846391238 -4 L 139.56533846391238 -1 L 124.96821610695619 -1 Z"/><text text-anchor="middle" pointer-events="none" font-size="8px" fill="#000000" x="86.03266923195619" y="3" font-family="sans-serif">REGULATES_PBrG</text></g><g class="relationship" transform="translate(-602.8347320079416 -255.80732382194753) rotate(449.27355675638677)"><path class="outline" fill="#A5ABB6" stroke="none" d="M 32.5 1 L 50.51464792111412 1 L 50.51464792111412 -1 L 32.5 -1 Z M 124.08886667111412 1 L 142.10351459222824 1 L 142.10351459222824 4 L 150.10351459222824 0 L 142.10351459222824 -4 L 142.10351459222824 -1 L 124.08886667111412 -1 Z"/><text text-anchor="middle" pointer-events="none" font-size="8px" fill="#000000" x="87.30175729611412" y="3" font-family="sans-serif">RESEMBLES_CrC</text></g><g class="relationship" transform="translate(-751.1743400130337 -255.21151335384008) rotate(449.31655123533153)"><path class="outline" fill="#A5ABB6" stroke="none" d="M 32.5 1 L 36.027685978915244 1 L 36.027685978915244 -1 L 32.5 -1 Z M 136.11752972891526 1 L 139.6452157078305 1 L 139.6452157078305 4 L 147.6452157078305 0 L 139.6452157078305 -4 L 139.6452157078305 -1 L 136.11752972891526 -1 Z"/><text text-anchor="middle" pointer-events="none" font-size="8px" fill="#000000" x="86.07260785391524" y="3" font-family="sans-serif">DOWNREGULATES_CdG</text></g><g class="relationship" transform="translate(-528.8035823772872 -256.23038317080545) rotate(449.3390932758761)"><path class="outline" fill="#A5ABB6" stroke="none" d="M 32.5 1 L 59.02057824958436 1 L 59.02057824958436 -1 L 32.5 -1 Z M 114.21198449958436 1 L 140.73256274916872 1 L 140.73256274916872 4 L 148.73256274916872 0 L 140.73256274916872 -4 L 140.73256274916872 -1 L 114.21198449958436 -1 Z"/><text text-anchor="middle" pointer-events="none" font-size="8px" fill="#000000" x="86.61628137458436" y="3" font-family="sans-serif">TREATS_CtD</text></g><g class="relationship" transform="translate(-677.342165337743 -255.9370092164917) rotate(449.422452085184)"><path class="outline" fill="#A5ABB6" stroke="none" d="M 32.5 1 L 53.3805477472215 1 L 53.3805477472215 -1 L 32.5 -1 Z M 121.3336727472215 1 L 142.214220494443 1 L 142.214220494443 4 L 150.214220494443 0 L 142.214220494443 -4 L 142.214220494443 -1 L 121.3336727472215 -1 Z"/><text text-anchor="middle" pointer-events="none" font-size="8px" fill="#000000" x="87.3571102472215" y="3" font-family="sans-serif">PALLIATES_CpD</text></g><g class="relationship" transform="translate(-13.647121053672265 -255.63447017392912) rotate(449.49181058038914)"><path class="outline" fill="#A5ABB6" stroke="none" d="M 32.5 1 L 44.769961910083694 1 L 44.769961910083694 -1 L 32.5 -1 Z M 130.64496191008368 1 L 142.9149238201674 1 L 142.9149238201674 4 L 150.9149238201674 0 L 142.9149238201674 -4 L 142.9149238201674 -1 L 130.64496191008368 -1 Z"/><text text-anchor="middle" pointer-events="none" font-size="8px" fill="#000000" x="87.7074619100837" y="3" font-family="sans-serif">UPREGULATES_DuG</text></g><g class="relationship" transform="translate(357.0573522989667 -255.35219438094742) rotate(449.5722177356681)"><path class="outline" fill="#A5ABB6" stroke="none" d="M 32.5 1 L 43.44486428363837 1 L 43.44486428363837 -1 L 32.5 -1 Z M 131.98002053363837 1 L 142.92488481727673 1 L 142.92488481727673 4 L 150.92488481727673 0 L 142.92488481727673 -4 L 142.92488481727673 -1 L 131.98002053363837 -1 Z"/><text text-anchor="middle" pointer-events="none" font-size="8px" fill="#000000" x="87.71244240863837" y="3" font-family="sans-serif">PARTICIPATES_GpMF</text></g><g class="relationship" transform="translate(-87.3147321011432 -255.12561602919138) rotate(449.90055247663764)"><path class="outline" fill="#A5ABB6" stroke="none" d="M 32.5 1 L 49.79555060389737 1 L 49.79555060389737 -1 L 32.5 -1 Z M 123.36976935389737 1 L 140.66531995779474 1 L 140.66531995779474 4 L 148.66531995779474 0 L 140.66531995779474 -4 L 140.66531995779474 -1 L 123.36976935389737 -1 Z"/><text text-anchor="middle" pointer-events="none" font-size="8px" fill="#000000" x="86.58265997889737" y="3" font-family="sans-serif">RESEMBLES_DrD</text></g><g class="relationship" transform="translate(-973.071071623227 -256.7617375934783) rotate(449.0652006717334)"><path class="outline" fill="#A5ABB6" stroke="none" d="M 32.5 1 L 45.394425048413495 1 L 45.394425048413495 -1 L 32.5 -1 Z M 130.8280187984135 1 L 143.722443846827 1 L 143.722443846827 4 L 151.722443846827 0 L 143.722443846827 -4 L 143.722443846827 -1 L 130.8280187984135 -1 Z"/><text text-anchor="middle" pointer-events="none" font-size="8px" fill="#000000" x="88.1112219234135" y="3" font-family="sans-serif">UPREGULATES_AuG</text></g><g class="relationship" transform="translate(133.61313748487714 -255.75525576757266) rotate(449.24848738793565)"><path class="outline" fill="#A5ABB6" stroke="none" d="M 32.5 1 L 51.632915757795345 1 L 51.632915757795345 -1 L 32.5 -1 Z M 121.64072825779535 1 L 140.7736440155907 1 L 140.7736440155907 4 L 148.7736440155907 0 L 140.7736440155907 -4 L 140.7736440155907 -1 L 121.64072825779535 -1 Z"/><text text-anchor="middle" pointer-events="none" font-size="8px" fill="#000000" x="86.63682200779535" y="3" font-family="sans-serif">INTERACTS_GiG</text></g></g><g class="layer nodes"><g class="node" transform="translate(431.9660972435103,-256.27139253545516)"><circle class="outline" cx="0" cy="0" r="32.5" fill="#68BDF6" stroke="#5CA8DB" stroke-width="2px"/><text text-anchor="middle" pointer-events="none" y="5" font-size="10px" fill="#FFFFFF" font-family="sans-serif"> HCFC1</text></g><g class="node" transform="translate(433.81846694707804,-71.15387744525972)"><circle class="outline" cx="0" cy="0" r="32.5" fill="#DE9BF9" stroke="#BF85D6" stroke-width="2px"/><text text-anchor="middle" pointer-events="none" y="5" font-size="10px" fill="#FFFFFF" font-family="sans-serif"> NABA_SEC…</text></g><g class="node" transform="translate(-381.5568520300089,-255.3759928347032)"><circle class="outline" cx="0" cy="0" r="32.5" fill="#FF756E" stroke="#E06760" stroke-width="2px"/><text text-anchor="middle" pointer-events="none" y="5" font-size="10px" fill="#FFFFFF" font-family="sans-serif"> hypertension</text></g><g class="node" transform="translate(-379.93445201077964,-73.94432029694494)"><circle class="outline" cx="0" cy="0" r="32.5" fill="#68BDF6" stroke="#5CA8DB" stroke-width="2px"/><text text-anchor="middle" pointer-events="none" y="5" font-size="10px" fill="#FFFFFF" font-family="sans-serif"> ARG2</text></g><g class="node" transform="translate(-1046.5343070667886,-257.2403003118753)"><circle class="outline" cx="0" cy="0" r="32.5" fill="#FFD86E" stroke="#EDBA39" stroke-width="2px"/><text text-anchor="middle" pointer-events="none" y="5" font-size="10px" fill="#604A0E" font-family="sans-serif"> lung</text></g><g class="node" transform="translate(-1044.4223273962987,-75.30911022519784)"><circle class="outline" cx="0" cy="0" r="32.5" fill="#68BDF6" stroke="#5CA8DB" stroke-width="2px"/><text text-anchor="middle" pointer-events="none" y="5" font-size="10px" fill="#FFFFFF" font-family="sans-serif"> CRISP2</text></g><g class="node" transform="translate(-454.8534594158134,-256.01421801529875)"><circle class="outline" cx="0" cy="0" r="32.5" fill="#6DCE9E" stroke="#60B58B" stroke-width="2px"/><text text-anchor="middle" pointer-events="none" y="5" font-size="10px" fill="#FFFFFF" font-family="sans-serif"> Chloroxine</text></g><g class="node" transform="translate(-453.87773274236173,-74.19752398680357)"><circle class="outline" cx="0" cy="0" r="32.5" fill="#68BDF6" stroke="#5CA8DB" stroke-width="2px"/><text text-anchor="middle" pointer-events="none" y="5" font-size="10px" fill="#FFFFFF" font-family="sans-serif"> HMOX1</text></g><g class="node" transform="translate(60.043796823064525,-255.45493678292576)"><circle class="outline" cx="0" cy="0" r="32.5" fill="#68BDF6" stroke="#5CA8DB" stroke-width="2px"/><text text-anchor="middle" pointer-events="none" y="5" font-size="10px" fill="#FFFFFF" font-family="sans-serif"> XKR6</text></g><g class="node" transform="translate(61.0667061573188,-75.41064283261372)"><circle class="outline" cx="0" cy="0" r="32.5" fill="#68BDF6" stroke="#5CA8DB" stroke-width="2px"/><text text-anchor="middle" pointer-events="none" y="5" font-size="10px" fill="#FFFFFF" font-family="sans-serif"> RAB24</text></g><g class="node" transform="translate(-1118.427941152081,-75.8642290232755)"><circle class="outline" cx="0" cy="0" r="32.5" fill="#68BDF6" stroke="#5CA8DB" stroke-width="2px"/><text text-anchor="middle" pointer-events="none" y="5" font-size="10px" fill="#FFFFFF" font-family="sans-serif"> LPCAT1</text></g><g class="node" transform="translate(-1119.2243663753552,-257.0162701984454)"><circle class="outline" cx="0" cy="0" r="32.5" fill="#FFD86E" stroke="#EDBA39" stroke-width="2px"/><text text-anchor="middle" pointer-events="none" y="5" font-size="10px" fill="#604A0E" font-family="sans-serif"> telencephal…</text></g><g class="node" transform="translate(-234.67745402323965,-256.74989171939046)"><circle class="outline" cx="0" cy="0" r="32.5" fill="#FF756E" stroke="#E06760" stroke-width="2px"/><text text-anchor="middle" pointer-events="none" y="5" font-size="10px" fill="#FFFFFF" font-family="sans-serif"> cleft lip</text></g><g class="node" transform="translate(-233.15510223545763,-72.04633734573473)"><circle class="outline" cx="0" cy="0" r="32.5" fill="#FFD86E" stroke="#EDBA39" stroke-width="2px"/><text text-anchor="middle" pointer-events="none" y="5" font-size="10px" fill="#604A0E" font-family="sans-serif"> basicranium</text></g><g class="node" transform="translate(-308.015962123668,-255.9835982149619)"><circle class="outline" cx="0" cy="0" r="32.5" fill="#FF756E" stroke="#E06760" stroke-width="2px"/><text text-anchor="middle" pointer-events="none" y="-5" font-size="10px" fill="#FFFFFF" font-family="sans-serif"> idiopathic</text><text text-anchor="middle" pointer-events="none" y="5" font-size="10px" fill="#FFFFFF" font-family="sans-serif"> pulmonary</text><text text-anchor="middle" pointer-events="none" y="15" font-size="10px" fill="#FFFFFF" font-family="sans-serif"> fibrosis</text></g><g class="node" transform="translate(-306.6391964239306,-73.45526389140782)"><circle class="outline" cx="0" cy="0" r="32.5" fill="#68BDF6" stroke="#5CA8DB" stroke-width="2px"/><text text-anchor="middle" pointer-events="none" y="5" font-size="10px" fill="#FFFFFF" font-family="sans-serif"> P3H2</text></g><g class="node" transform="translate(-897.8639084206727,-255.00543151405475)"><circle class="outline" cx="0" cy="0" r="32.5" fill="#6DCE9E" stroke="#60B58B" stroke-width="2px"/><text text-anchor="middle" pointer-events="none" y="5" font-size="10px" fill="#FFFFFF" font-family="sans-serif"> Methoxyflur…</text></g><g class="node" transform="translate(-897.798261945466,-72.0165957541879)"><circle class="outline" cx="0" cy="0" r="32.5" fill="#68BDF6" stroke="#5CA8DB" stroke-width="2px"/><text text-anchor="middle" pointer-events="none" y="5" font-size="10px" fill="#FFFFFF" font-family="sans-serif"> GABRA1</text></g><g class="node" transform="translate(284.45334974281985,-72.15793328609361)"><circle class="outline" cx="0" cy="0" r="32.5" fill="#FB95AF" stroke="#E0849B" stroke-width="2px"/><text text-anchor="middle" pointer-events="none" y="-5" font-size="10px" fill="#FFFFFF" font-family="sans-serif"> muscle cell</text><text text-anchor="middle" pointer-events="none" y="5" font-size="10px" fill="#FFFFFF" font-family="sans-serif"> projection</text><text text-anchor="middle" pointer-events="none" y="15" font-size="10px" fill="#FFFFFF" font-family="sans-serif"> membrane</text></g><g class="node" transform="translate(284.1258447679624,-255.5676710450458)"><circle class="outline" cx="0" cy="0" r="32.5" fill="#68BDF6" stroke="#5CA8DB" stroke-width="2px"/><text text-anchor="middle" pointer-events="none" y="5" font-size="10px" fill="#FFFFFF" font-family="sans-serif"> PLEKHO1</text></g><g class="node" transform="translate(504.84080267116406,-252.5567635117635)"><circle class="outline" cx="0" cy="0" r="32.5" fill="#68BDF6" stroke="#5CA8DB" stroke-width="2px"/><text text-anchor="middle" pointer-events="none" y="5" font-size="10px" fill="#FFFFFF" font-family="sans-serif"> TNFRSF18</text></g><g class="node" transform="translate(507.6365411388803,-70.80613729772571)"><circle class="outline" cx="0" cy="0" r="32.5" fill="#68BDF6" stroke="#5CA8DB" stroke-width="2px"/><text text-anchor="middle" pointer-events="none" y="5" font-size="10px" fill="#FFFFFF" font-family="sans-serif"> TNIP1</text></g><g class="node" transform="translate(-825.7028920205679,-255.84155192281202)"><circle class="outline" cx="0" cy="0" r="32.5" fill="#6DCE9E" stroke="#60B58B" stroke-width="2px"/><text text-anchor="middle" pointer-events="none" y="5" font-size="10px" fill="#FFFFFF" font-family="sans-serif"> Ceftizoxime</text></g><g class="node" transform="translate(-822.9444457936653,-75.14211614889886)"><circle class="outline" cx="0" cy="0" r="32.5" fill="#A5ABB6" stroke="#9AA1AC" stroke-width="2px"/><text text-anchor="middle" pointer-events="none" y="5" font-size="10px" fill="#FFFFFF" font-family="sans-serif"> Anaemia</text></g><g class="node" transform="translate(208.9417152737687,-254.93774437827886)"><circle class="outline" cx="0" cy="0" r="32.5" fill="#68BDF6" stroke="#5CA8DB" stroke-width="2px"/><text text-anchor="middle" pointer-events="none" y="5" font-size="10px" fill="#FFFFFF" font-family="sans-serif"> BMP2</text></g><g class="node" transform="translate(211.91151870807943,-70.7743448326699)"><circle class="outline" cx="0" cy="0" r="32.5" fill="#FB95AF" stroke="#E0849B" stroke-width="2px"/><text text-anchor="middle" pointer-events="none" y="-15" font-size="10px" fill="#FFFFFF" font-family="sans-serif"> negative</text><text text-anchor="middle" pointer-events="none" y="-5" font-size="10px" fill="#FFFFFF" font-family="sans-serif"> regulation</text><text text-anchor="middle" pointer-events="none" y="5" font-size="10px" fill="#FFFFFF" font-family="sans-serif"> of</text><text text-anchor="middle" pointer-events="none" y="15" font-size="10px" fill="#FFFFFF" font-family="sans-serif"> aldosterone</text><text text-anchor="middle" pointer-events="none" y="25" font-size="10px" fill="#FFFFFF" font-family="sans-serif"> metab…</text></g><g class="node" transform="translate(-160.92302946921254,-255.61903576585738)"><circle class="outline" cx="0" cy="0" r="32.5" fill="#FF756E" stroke="#E06760" stroke-width="2px"/><text text-anchor="middle" pointer-events="none" y="0" font-size="10px" fill="#FFFFFF" font-family="sans-serif"> Peritoneum</text><text text-anchor="middle" pointer-events="none" y="10" font-size="10px" fill="#FFFFFF" font-family="sans-serif"> cancer</text></g><g class="node" transform="translate(-159.79277004386248,-73.6651836102958)"><circle class="outline" cx="0" cy="0" r="32.5" fill="#A5ABB6" stroke="#9AA1AC" stroke-width="2px"/><text text-anchor="middle" pointer-events="none" y="0" font-size="10px" fill="#FFFFFF" font-family="sans-serif"> Jaundice,</text><text text-anchor="middle" pointer-events="none" y="10" font-size="10px" fill="#FFFFFF" font-family="sans-serif"> Obstructive</text></g><g class="node" transform="translate(578.9820639397982,-251.9449427513492)"><circle class="outline" cx="0" cy="0" r="32.5" fill="#DE9BF9" stroke="#BF85D6" stroke-width="2px"/><text text-anchor="middle" pointer-events="none" y="5" font-size="10px" fill="#FFFFFF" font-family="sans-serif"> SAKAI_TU…</text></g><g class="node" transform="translate(579.6308322614751,-71.88077303458374)"><circle class="outline" cx="0" cy="0" r="32.5" fill="#68BDF6" stroke="#5CA8DB" stroke-width="2px"/><text text-anchor="middle" pointer-events="none" y="5" font-size="10px" fill="#FFFFFF" font-family="sans-serif"> NCOA4</text></g><g class="node" transform="translate(-600.5195957694739,-73.2184860315956)"><circle class="outline" cx="0" cy="0" r="32.5" fill="#6DCE9E" stroke="#60B58B" stroke-width="2px"/><text text-anchor="middle" pointer-events="none" y="5" font-size="10px" fill="#FFFFFF" font-family="sans-serif"> Hydrocortis…</text></g><g class="node" transform="translate(-602.8347320079416,-255.80732382194753)"><circle class="outline" cx="0" cy="0" r="32.5" fill="#6DCE9E" stroke="#60B58B" stroke-width="2px"/><text text-anchor="middle" pointer-events="none" y="5" font-size="10px" fill="#FFFFFF" font-family="sans-serif"> Fludrocortis…</text></g><g class="node" transform="translate(-751.1743400130337,-255.21151335384008)"><circle class="outline" cx="0" cy="0" r="32.5" fill="#6DCE9E" stroke="#60B58B" stroke-width="2px"/><text text-anchor="middle" pointer-events="none" y="5" font-size="10px" fill="#FFFFFF" font-family="sans-serif"> Daunorubicin</text></g><g class="node" transform="translate(-749.0255411579695,-75.07911369763927)"><circle class="outline" cx="0" cy="0" r="32.5" fill="#68BDF6" stroke="#5CA8DB" stroke-width="2px"/><text text-anchor="middle" pointer-events="none" y="5" font-size="10px" fill="#FFFFFF" font-family="sans-serif"> EIF3F</text></g><g class="node" transform="translate(-528.8035823772872,-256.23038317080545)"><circle class="outline" cx="0" cy="0" r="32.5" fill="#6DCE9E" stroke="#60B58B" stroke-width="2px"/><text text-anchor="middle" pointer-events="none" y="5" font-size="10px" fill="#FFFFFF" font-family="sans-serif"> Pamidronate</text></g><g class="node" transform="translate(-526.7131114178201,-75.00987734489456)"><circle class="outline" cx="0" cy="0" r="32.5" fill="#FF756E" stroke="#E06760" stroke-width="2px"/><text text-anchor="middle" pointer-events="none" y="5" font-size="10px" fill="#FFFFFF" font-family="sans-serif"> osteoporosis</text></g><g class="node" transform="translate(-677.342165337743,-255.9370092164917)"><circle class="outline" cx="0" cy="0" r="32.5" fill="#6DCE9E" stroke="#60B58B" stroke-width="2px"/><text text-anchor="middle" pointer-events="none" y="5" font-size="10px" fill="#FFFFFF" font-family="sans-serif"> Rizatriptan</text></g><g class="node" transform="translate(-675.5004165929572,-73.2320713181059)"><circle class="outline" cx="0" cy="0" r="32.5" fill="#FF756E" stroke="#E06760" stroke-width="2px"/><text text-anchor="middle" pointer-events="none" y="5" font-size="10px" fill="#FFFFFF" font-family="sans-serif"> migraine</text></g><g class="node" transform="translate(-13.647121053672265,-255.63447017392912)"><circle class="outline" cx="0" cy="0" r="32.5" fill="#FF756E" stroke="#E06760" stroke-width="2px"/><text text-anchor="middle" pointer-events="none" y="0" font-size="10px" fill="#FFFFFF" font-family="sans-serif"> Pancreatic</text><text text-anchor="middle" pointer-events="none" y="10" font-size="10px" fill="#FFFFFF" font-family="sans-serif"> cancer</text></g><g class="node" transform="translate(-12.02032930115924,-72.2267608797128)"><circle class="outline" cx="0" cy="0" r="32.5" fill="#68BDF6" stroke="#5CA8DB" stroke-width="2px"/><text text-anchor="middle" pointer-events="none" y="5" font-size="10px" fill="#FFFFFF" font-family="sans-serif"> CEP128</text></g><g class="node" transform="translate(358.4268281002656,-71.93242198369222)"><circle class="outline" cx="0" cy="0" r="32.5" fill="#FB95AF" stroke="#E0849B" stroke-width="2px"/><text text-anchor="middle" pointer-events="none" y="5" font-size="10px" fill="#FFFFFF" font-family="sans-serif"> exopeptidase</text></g><g class="node" transform="translate(357.0573522989667,-255.35219438094742)"><circle class="outline" cx="0" cy="0" r="32.5" fill="#68BDF6" stroke="#5CA8DB" stroke-width="2px"/><text text-anchor="middle" pointer-events="none" y="5" font-size="10px" fill="#FFFFFF" font-family="sans-serif"> AEBP1</text></g><g class="node" transform="translate(-87.00028601984405,-73.96056896140819)"><circle class="outline" cx="0" cy="0" r="32.5" fill="#FF756E" stroke="#E06760" stroke-width="2px"/><text text-anchor="middle" pointer-events="none" y="5" font-size="10px" fill="#FFFFFF" font-family="sans-serif"> Sarcoma</text></g><g class="node" transform="translate(-87.3147321011432,-255.12561602919138)"><circle class="outline" cx="0" cy="0" r="32.5" fill="#FF756E" stroke="#E06760" stroke-width="2px"/><text text-anchor="middle" pointer-events="none" y="5" font-size="10px" fill="#FFFFFF" font-family="sans-serif"> Lung cancer</text></g><g class="node" transform="translate(-973.071071623227,-256.7617375934783)"><circle class="outline" cx="0" cy="0" r="32.5" fill="#FFD86E" stroke="#EDBA39" stroke-width="2px"/><text text-anchor="middle" pointer-events="none" y="5" font-size="10px" fill="#604A0E" font-family="sans-serif"> adrenal gland</text></g><g class="node" transform="translate(-970.0655557163515,-72.56381227663104)"><circle class="outline" cx="0" cy="0" r="32.5" fill="#68BDF6" stroke="#5CA8DB" stroke-width="2px"/><text text-anchor="middle" pointer-events="none" y="5" font-size="10px" fill="#FFFFFF" font-family="sans-serif"> TGS1</text></g><g class="node" transform="translate(133.61313748487714,-255.75525576757266)"><circle class="outline" cx="0" cy="0" r="32.5" fill="#68BDF6" stroke="#5CA8DB" stroke-width="2px"/><text text-anchor="middle" pointer-events="none" y="5" font-size="10px" fill="#FFFFFF" font-family="sans-serif"> ARHGDIB</text></g><g class="node" transform="translate(135.9907213971892,-74.49720461002813)"><circle class="outline" cx="0" cy="0" r="32.5" fill="#68BDF6" stroke="#5CA8DB" stroke-width="2px"/><text text-anchor="middle" pointer-events="none" y="5" font-size="10px" fill="#FFFFFF" font-family="sans-serif"> RAC2</text></g></g></svg>