<svg xmlns="http://www.w3.org/2000/svg" width="1415.602294921875" height="228.74208068847656" viewBox="-752.5905151367188 -58.580322265625 1415.602294921875 228.74208068847656"><title>Neo4j Graph Visualization</title><desc>Created using Neo4j (http://www.neo4j.com/)</desc><g class="layer relationships"><g class="relationship" transform="translate(-312.80400709543915 -27.086481094757204) rotate(449.2368577759611)"><path class="outline" fill="#A5ABB6" stroke="none" d="M 25 0.5 L 32.64940237300195 0.5 L 32.64940237300195 -0.5 L 25 -0.5 Z M 122.52049612300195 0.5 L 130.1698984960039 0.5 L 130.1698984960039 3.5 L 137.1698984960039 0 L 130.1698984960039 -3.5 L 130.1698984960039 -0.5 L 122.52049612300195 -0.5 Z"/><text text-anchor="middle" pointer-events="none" font-size="8px" fill="#000000" x="77.58494924800195" y="3" font-family="sans-serif">PARTICIPATES_GpPW</text></g><g class="relationship" transform="translate(418.58164875116853 -28.267608473387043) rotate(456.04715264085826)"><path class="outline" fill="#A5ABB6" stroke="none" d="M 25 0.5 L 40.50020813540034 0.5 L 40.50020813540034 -0.5 L 25 -0.5 Z M 117.92989563540034 0.5 L 133.43010377080068 0.5 L 133.43010377080068 3.5 L 140.43010377080068 0 L 133.43010377080068 -3.5 L 133.43010377080068 -0.5 L 117.92989563540034 -0.5 Z"/><text text-anchor="middle" pointer-events="none" font-size="8px" fill="#000000" x="79.21505188540034" y="3" transform="rotate(180 79.21505188540034 0)" font-family="sans-serif">ASSOCIATES_DaG</text></g><g class="relationship" transform="translate(272.8375772028337 -28.549859905800993) rotate(449.2836657493398)"><path class="outline" fill="#A5ABB6" stroke="none" d="M 25 0.5 L 43.62699409127458 0.5 L 43.62699409127458 -0.5 L 25 -0.5 Z M 118.54886909127458 0.5 L 137.17586318254916 0.5 L 137.17586318254916 3.5 L 144.17586318254916 0 L 137.17586318254916 -3.5 L 137.17586318254916 -0.5 L 118.54886909127458 -0.5 Z"/><text text-anchor="middle" pointer-events="none" font-size="8px" fill="#000000" x="81.08793159127458" y="3" font-family="sans-serif">EXPRESSES_AeG</text></g><g class="relationship" transform="translate(-665.3483707709324 -27.760635380687035) rotate(431.6802693356526)"><path class="outline" fill="#A5ABB6" stroke="none" d="M 25 0.5 L 39.25773447682198 0.5 L 39.25773447682198 -0.5 L 25 -0.5 Z M 125.13273447682198 0.5 L 139.39046895364396 0.5 L 139.39046895364396 3.5 L 146.39046895364396 0 L 139.39046895364396 -3.5 L 139.39046895364396 -0.5 L 125.13273447682198 -0.5 Z"/><text text-anchor="middle" pointer-events="none" font-size="8px" fill="#000000" x="82.19523447682198" y="3" font-family="sans-serif">UPREGULATES_CuG</text></g><g class="relationship" transform="translate(184.96989411066738 -28.34281875569394) rotate(461.174493028893)"><path class="outline" fill="#A5ABB6" stroke="none" d="M 25 0.5 L 31.25143148408378 0.5 L 31.25143148408378 -0.5 L 25 -0.5 Z M 130.89986898408378 0.5 L 137.15130046816756 0.5 L 137.15130046816756 3.5 L 144.15130046816756 0 L 137.15130046816756 -3.5 L 137.15130046816756 -0.5 L 130.89986898408378 -0.5 Z"/><text text-anchor="middle" pointer-events="none" font-size="8px" fill="#000000" x="81.07565023408378" y="3" transform="rotate(180 81.07565023408378 0)" font-family="sans-serif">DOWNREGULATES_AdG</text></g><g class="relationship" transform="translate(70.5024805090228 -29.580322459333452) rotate(441.2737105940294)"><path class="outline" fill="#A5ABB6" stroke="none" d="M 25 0.5 L 47.649682535649944 0.5 L 47.649682535649944 -0.5 L 25 -0.5 Z M 115.29421378564994 0.5 L 137.9438963212999 0.5 L 137.9438963212999 3.5 L 144.9438963212999 0 L 137.9438963212999 -3.5 L 137.9438963212999 -0.5 L 115.29421378564994 -0.5 Z"/><text text-anchor="middle" pointer-events="none" font-size="8px" fill="#000000" x="81.47194816064994" y="3" font-family="sans-serif">COVARIES_GcG</text></g><g class="relationship" transform="translate(418.58164875116853 -28.267608473387043) rotate(474.74524487273806)"><path class="outline" fill="#A5ABB6" stroke="none" d="M 25 0.5 L 53.39366936972392 0.5 L 53.39366936972392 -0.5 L 25 -0.5 Z M 120.74913811972392 0.5 L 149.14280748944785 0.5 L 149.14280748944785 3.5 L 156.14280748944785 0 L 149.14280748944785 -3.5 L 149.14280748944785 -0.5 L 120.74913811972392 -0.5 Z"/><text text-anchor="middle" pointer-events="none" font-size="8px" fill="#000000" x="87.07140374472392" y="3" transform="rotate(180 87.07140374472392 0)" font-family="sans-serif">LOCALIZES_DlA</text></g><g class="relationship" transform="translate(602.8330924743696 -28.463950096174813) rotate(458.5816123746715)"><path class="outline" fill="#A5ABB6" stroke="none" d="M 25 0.5 L 31.036745801415222 0.5 L 31.036745801415222 -0.5 L 25 -0.5 Z M 131.12658955141524 0.5 L 137.16333535283044 0.5 L 137.16333535283044 3.5 L 144.16333535283044 0 L 137.16333535283044 -3.5 L 137.16333535283044 -0.5 L 131.12658955141524 -0.5 Z"/><text text-anchor="middle" pointer-events="none" font-size="8px" fill="#000000" x="81.08166767641522" y="3" transform="rotate(180 81.08166767641522 0)" font-family="sans-serif">DOWNREGULATES_DdG</text></g><g class="relationship" transform="translate(-164.7438526317133 -26.086210059847645) rotate(478.4838416164762)"><path class="outline" fill="#A5ABB6" stroke="none" d="M 25 0.5 L 52.0434053345752 0.5 L 52.0434053345752 -0.5 L 25 -0.5 Z M 125.4652803345752 0.5 L 152.5086856691504 0.5 L 152.5086856691504 3.5 L 159.5086856691504 0 L 152.5086856691504 -3.5 L 152.5086856691504 -0.5 L 125.4652803345752 -0.5 Z"/><text text-anchor="middle" pointer-events="none" font-size="8px" fill="#000000" x="88.7543428345752" y="3" transform="rotate(180 88.7543428345752 0)" font-family="sans-serif">REGULATES_GrG</text></g><g class="relationship" transform="translate(-164.7438526317133 -26.086210059847645) rotate(440.5569928957468)"><path class="outline" fill="#A5ABB6" stroke="none" d="M 25 0.5 L 34.1818262671746 0.5 L 34.1818262671746 -0.5 L 25 -0.5 Z M 122.7208887671746 0.5 L 131.9027150343492 0.5 L 131.9027150343492 3.5 L 138.9027150343492 0 L 131.9027150343492 -3.5 L 131.9027150343492 -0.5 L 122.7208887671746 -0.5 Z"/><text text-anchor="middle" pointer-events="none" font-size="8px" fill="#000000" x="78.4513575171746" y="3" font-family="sans-serif">PARTICIPATES_GpCC</text></g><g class="relationship" transform="translate(-431.2344379519194 -27.930369912683148) rotate(429.3234611034548)"><path class="outline" fill="#A5ABB6" stroke="none" d="M 25 0.5 L 58.18808176524986 0.5 L 58.18808176524986 -0.5 L 25 -0.5 Z M 109.53573801524986 0.5 L 142.72381978049972 0.5 L 142.72381978049972 3.5 L 149.72381978049972 0 L 142.72381978049972 -3.5 L 142.72381978049972 -0.5 L 109.53573801524986 -0.5 Z"/><text text-anchor="middle" pointer-events="none" font-size="8px" fill="#000000" x="83.86190989024986" y="3" font-family="sans-serif">BINDS_CbG</text></g><g class="relationship" transform="translate(-164.7438526317133 -26.086210059847645) rotate(421.8183666390148)"><path class="outline" fill="#A5ABB6" stroke="none" d="M 25 0.5 L 44.52440736767221 0.5 L 44.52440736767221 -0.5 L 25 -0.5 Z M 132.1806573676722 0.5 L 151.70506473534442 0.5 L 151.70506473534442 3.5 L 158.70506473534442 0 L 151.70506473534442 -3.5 L 151.70506473534442 -0.5 L 132.1806573676722 -0.5 Z"/><text text-anchor="middle" pointer-events="none" font-size="8px" fill="#000000" x="88.35253236767221" y="3" font-family="sans-serif">PARTICIPATES_GpBP</text></g><g class="relationship" transform="translate(-431.2344379519194 -27.930369912683148) rotate(449.0386655598863)"><path class="outline" fill="#A5ABB6" stroke="none" d="M 25 0.5 L 46.45517014942256 0.5 L 46.45517014942256 -0.5 L 25 -0.5 Z M 110.25204514942256 0.5 L 131.7072152988451 0.5 L 131.7072152988451 3.5 L 138.7072152988451 0 L 131.7072152988451 -3.5 L 131.7072152988451 -0.5 L 110.25204514942256 -0.5 Z"/><text text-anchor="middle" pointer-events="none" font-size="8px" fill="#000000" x="78.35360764942256" y="3" font-family="sans-serif">CAUSES_CcSE</text></g><g class="relationship" transform="translate(418.58164875116853 -28.267608473387043) rotate(436.06268820422105)"><path class="outline" fill="#A5ABB6" stroke="none" d="M 25 0.5 L 47.66280081078884 0.5 L 47.66280081078884 -0.5 L 25 -0.5 Z M 116.79561331078884 0.5 L 139.45841412157768 0.5 L 139.45841412157768 3.5 L 146.45841412157768 0 L 139.45841412157768 -3.5 L 139.45841412157768 -0.5 L 116.79561331078884 -0.5 Z"/><text text-anchor="middle" pointer-events="none" font-size="8px" fill="#000000" x="82.22920706078884" y="3" font-family="sans-serif">PRESENTS_DpS</text></g><g class="relationship" transform="translate(-20.456533459758504 -29.16246670397308) rotate(449.2306708055968)"><path class="outline" fill="#A5ABB6" stroke="none" d="M 25 0.5 L 39.52567387882051 0.5 L 39.52567387882051 -0.5 L 25 -0.5 Z M 117.39676762882051 0.5 L 131.92244150764103 0.5 L 131.92244150764103 3.5 L 138.92244150764103 0 L 131.92244150764103 -3.5 L 131.92244150764103 -0.5 L 117.39676762882051 -0.5 Z"/><text text-anchor="middle" pointer-events="none" font-size="8px" fill="#000000" x="78.46122075382051" y="3" font-family="sans-serif">REGULATES_PBrG</text></g><g class="relationship" transform="translate(-431.2344379519194 -27.930369912683148) rotate(469.1932064041779)"><path class="outline" fill="#A5ABB6" stroke="none" d="M 25 0.5 L 46.226002375283386 0.5 L 46.226002375283386 -0.5 L 25 -0.5 Z M 119.80022112528339 0.5 L 141.02622350056677 0.5 L 141.02622350056677 3.5 L 148.02622350056677 0 L 141.02622350056677 -3.5 L 141.02622350056677 -0.5 L 119.80022112528339 -0.5 Z"/><text text-anchor="middle" pointer-events="none" font-size="8px" fill="#000000" x="83.01311175028339" y="3" transform="rotate(180 83.01311175028339 0)" font-family="sans-serif">RESEMBLES_CrC</text></g><g class="relationship" transform="translate(-665.3483707709324 -27.760635380687035) rotate(451.3899019681159)"><path class="outline" fill="#A5ABB6" stroke="none" d="M 25 0.5 L 27.70642162785306 0.5 L 27.70642162785306 -0.5 L 25 -0.5 Z M 127.79626537785306 0.5 L 130.50268700570612 0.5 L 130.50268700570612 3.5 L 137.50268700570612 0 L 130.50268700570612 -3.5 L 130.50268700570612 -0.5 L 127.79626537785306 -0.5 Z"/><text text-anchor="middle" pointer-events="none" font-size="8px" fill="#000000" x="77.75134350285306" y="3" transform="rotate(180 77.75134350285306 0)" font-family="sans-serif">DOWNREGULATES_CdG</text></g><g class="relationship" transform="translate(602.8330924743696 -28.463950096174813) rotate(439.5847874215425)"><path class="outline" fill="#A5ABB6" stroke="none" d="M 25 0.5 L 39.79618311282542 0.5 L 39.79618311282542 -0.5 L 25 -0.5 Z M 125.67118311282542 0.5 L 140.46736622565084 0.5 L 140.46736622565084 3.5 L 147.46736622565084 0 L 140.46736622565084 -3.5 L 140.46736622565084 -0.5 L 125.67118311282542 -0.5 Z"/><text text-anchor="middle" pointer-events="none" font-size="8px" fill="#000000" x="82.73368311282542" y="3" font-family="sans-serif">UPREGULATES_DuG</text></g><g class="relationship" transform="translate(-665.3483707709324 -27.760635380687035) rotate(469.79010993741036)"><path class="outline" fill="#A5ABB6" stroke="none" d="M 25 0.5 L 54.91482705992276 0.5 L 54.91482705992276 -0.5 L 25 -0.5 Z M 110.10623330992276 0.5 L 140.02106036984551 0.5 L 140.02106036984551 3.5 L 147.02106036984551 0 L 140.02106036984551 -3.5 L 140.02106036984551 -0.5 L 110.10623330992276 -0.5 Z"/><text text-anchor="middle" pointer-events="none" font-size="8px" fill="#000000" x="82.51053018492276" y="3" transform="rotate(180 82.51053018492276 0)" font-family="sans-serif">TREATS_CtD</text></g><g class="relationship" transform="translate(-549.1090176345891 -27.42532407030029) rotate(449.5692026018248)"><path class="outline" fill="#A5ABB6" stroke="none" d="M 25 0.5 L 44.477562461407715 0.5 L 44.477562461407715 -0.5 L 25 -0.5 Z M 112.43068746140771 0.5 L 131.90824992281543 0.5 L 131.90824992281543 3.5 L 138.90824992281543 0 L 131.90824992281543 -3.5 L 131.90824992281543 -0.5 L 112.43068746140771 -0.5 Z"/><text text-anchor="middle" pointer-events="none" font-size="8px" fill="#000000" x="78.45412496140771" y="3" font-family="sans-serif">PALLIATES_CpD</text></g><g class="relationship" transform="translate(-164.7438526317133 -26.086210059847645) rotate(460.6234475726467)"><path class="outline" fill="#A5ABB6" stroke="none" d="M 25 0.5 L 33.92849502844413 0.5 L 33.92849502844413 -0.5 L 25 -0.5 Z M 122.46365127844413 0.5 L 131.39214630688826 0.5 L 131.39214630688826 3.5 L 138.39214630688826 0 L 131.39214630688826 -3.5 L 131.39214630688826 -0.5 L 122.46365127844413 -0.5 Z"/><text text-anchor="middle" pointer-events="none" font-size="8px" fill="#000000" x="78.19607315344413" y="3" transform="rotate(180 78.19607315344413 0)" font-family="sans-serif">PARTICIPATES_GpMF</text></g><g class="relationship" transform="translate(418.58164875116853 -28.267608473387043) rotate(420.0135516116301)"><path class="outline" fill="#A5ABB6" stroke="none" d="M 25 0.5 L 56.11340939529694 0.5 L 56.11340939529694 -0.5 L 25 -0.5 Z M 129.68762814529694 0.5 L 160.80103754059388 0.5 L 160.80103754059388 3.5 L 167.80103754059388 0 L 160.80103754059388 -3.5 L 160.80103754059388 -0.5 L 129.68762814529694 -0.5 Z"/><text text-anchor="middle" pointer-events="none" font-size="8px" fill="#000000" x="92.90051877029694" y="3" font-family="sans-serif">RESEMBLES_DrD</text></g><g class="relationship" transform="translate(184.96989411066738 -28.34281875569394) rotate(441.88057615287136)"><path class="outline" fill="#A5ABB6" stroke="none" d="M 25 0.5 L 38.55103054254924 0.5 L 38.55103054254924 -0.5 L 25 -0.5 Z M 123.98462429254924 0.5 L 137.53565483509848 0.5 L 137.53565483509848 3.5 L 144.53565483509848 0 L 137.53565483509848 -3.5 L 137.53565483509848 -0.5 L 123.98462429254924 -0.5 Z"/><text text-anchor="middle" pointer-events="none" font-size="8px" fill="#000000" x="81.26782741754924" y="3" font-family="sans-serif">UPREGULATES_AuG</text></g><g class="relationship" transform="translate(70.5024805090228 -29.580322459333452) rotate(460.94678591779456)"><path class="outline" fill="#A5ABB6" stroke="none" d="M 25 0.5 L 45.48026472020467 0.5 L 45.48026472020467 -0.5 L 25 -0.5 Z M 115.48807722020467 0.5 L 135.96834194040935 0.5 L 135.96834194040935 3.5 L 142.96834194040935 0 L 135.96834194040935 -3.5 L 135.96834194040935 -0.5 L 115.48807722020467 -0.5 Z"/><text text-anchor="middle" pointer-events="none" font-size="8px" fill="#000000" x="80.48417097020467" y="3" transform="rotate(180 80.48417097020467 0)" font-family="sans-serif">INTERACTS_GiG</text></g></g><g class="layer nodes"><g class="node" transform="translate(-312.80400709543915,-27.086481094757204)"><circle class="outline" cx="0" cy="0" r="25" fill="#6DCE9E" stroke="#60B58B" stroke-width="2px"/><text text-anchor="middle" pointer-events="none" y="5" font-size="10px" fill="#FFFFFF" font-family="sans-serif"> SERPIN…</text></g><g class="node" transform="translate(-310.64407421974397,135.06903274358473)"><circle class="outline" cx="0" cy="0" r="25" fill="#FF756E" stroke="#E06760" stroke-width="2px"/><text text-anchor="middle" pointer-events="none" y="5" font-size="10px" fill="#FFFFFF" font-family="sans-serif"> NABA_…</text></g><g class="node" transform="translate(401.1541020873591,136.24196526291144)"><circle class="outline" cx="0" cy="0" r="25" fill="#6DCE9E" stroke="#60B58B" stroke-width="2px"/><text text-anchor="middle" pointer-events="none" y="5" font-size="10px" fill="#FFFFFF" font-family="sans-serif"> SMARC…</text></g><g class="node" transform="translate(418.58164875116853,-28.267608473387043)"><circle class="outline" cx="0" cy="0" r="25" fill="#68BDF6" stroke="#5CA8DB" stroke-width="2px"/><text text-anchor="middle" pointer-events="none" y="0" font-size="10px" fill="#FFFFFF" font-family="sans-serif"> dental</text><text text-anchor="middle" pointer-events="none" y="10" font-size="10px" fill="#FFFFFF" font-family="sans-serif"> caries</text></g><g class="node" transform="translate(274.95262492767694,140.6127815274724)"><circle class="outline" cx="0" cy="0" r="25" fill="#6DCE9E" stroke="#60B58B" stroke-width="2px"/><text text-anchor="middle" pointer-events="none" y="5" font-size="10px" fill="#FFFFFF" font-family="sans-serif"> CHRNA4</text></g><g class="node" transform="translate(272.8375772028337,-28.549859905800993)"><circle class="outline" cx="0" cy="0" r="25" fill="#FFD86E" stroke="#EDBA39" stroke-width="2px"/><text text-anchor="middle" pointer-events="none" y="-5" font-size="10px" fill="#604A0E" font-family="sans-serif"> superior</text><text text-anchor="middle" pointer-events="none" y="5" font-size="10px" fill="#604A0E" font-family="sans-serif"> cervical</text><text text-anchor="middle" pointer-events="none" y="15" font-size="10px" fill="#604A0E" font-family="sans-serif"> gangli…</text></g><g class="node" transform="translate(-611.477023751513,134.94330070711413)"><circle class="outline" cx="0" cy="0" r="25" fill="#6DCE9E" stroke="#60B58B" stroke-width="2px"/><text text-anchor="middle" pointer-events="none" y="5" font-size="10px" fill="#FFFFFF" font-family="sans-serif"> TSC22D3</text></g><g class="node" transform="translate(-665.3483707709324,-27.760635380687035)"><circle class="outline" cx="0" cy="0" r="25" fill="#FF756E" stroke="#E06760" stroke-width="2px"/><text text-anchor="middle" pointer-events="none" y="5" font-size="10px" fill="#FFFFFF" font-family="sans-serif"> Prednis…</text></g><g class="node" transform="translate(152.18877300995626,137.60163143608807)"><circle class="outline" cx="0" cy="0" r="25" fill="#6DCE9E" stroke="#60B58B" stroke-width="2px"/><text text-anchor="middle" pointer-events="none" y="5" font-size="10px" fill="#FFFFFF" font-family="sans-serif"> CETN1</text></g><g class="node" transform="translate(184.96989411066738,-28.34281875569394)"><circle class="outline" cx="0" cy="0" r="25" fill="#FFD86E" stroke="#EDBA39" stroke-width="2px"/><text text-anchor="middle" pointer-events="none" y="5" font-size="10px" fill="#604A0E" font-family="sans-serif"> cerebell…</text></g><g class="node" transform="translate(96.28541024287654,138.39636768309046)"><circle class="outline" cx="0" cy="0" r="25" fill="#6DCE9E" stroke="#60B58B" stroke-width="2px"/><text text-anchor="middle" pointer-events="none" y="5" font-size="10px" fill="#FFFFFF" font-family="sans-serif"> SDC3</text></g><g class="node" transform="translate(70.5024805090228,-29.580322459333452)"><circle class="outline" cx="0" cy="0" r="25" fill="#6DCE9E" stroke="#60B58B" stroke-width="2px"/><text text-anchor="middle" pointer-events="none" y="5" font-size="10px" fill="#FFFFFF" font-family="sans-serif"> CCHCR1</text></g><g class="node" transform="translate(342.75810135827044,136.24228899760436)"><circle class="outline" cx="0" cy="0" r="25" fill="#FFD86E" stroke="#EDBA39" stroke-width="2px"/><text text-anchor="middle" pointer-events="none" y="0" font-size="10px" fill="#604A0E" font-family="sans-serif"> parotid</text><text text-anchor="middle" pointer-events="none" y="10" font-size="10px" fill="#604A0E" font-family="sans-serif"> gland</text></g><g class="node" transform="translate(602.8330924743696,-28.463950096174813)"><circle class="outline" cx="0" cy="0" r="25" fill="#68BDF6" stroke="#5CA8DB" stroke-width="2px"/><text text-anchor="middle" pointer-events="none" y="5" font-size="10px" fill="#FFFFFF" font-family="sans-serif"> polycystic</text></g><g class="node" transform="translate(577.5908746011767,138.80548663551397)"><circle class="outline" cx="0" cy="0" r="25" fill="#6DCE9E" stroke="#60B58B" stroke-width="2px"/><text text-anchor="middle" pointer-events="none" y="5" font-size="10px" fill="#FFFFFF" font-family="sans-serif"> PSMB2</text></g><g class="node" transform="translate(-164.7438526317133,-26.086210059847645)"><circle class="outline" cx="0" cy="0" r="25" fill="#6DCE9E" stroke="#60B58B" stroke-width="2px"/><text text-anchor="middle" pointer-events="none" y="5" font-size="10px" fill="#FFFFFF" font-family="sans-serif"> RNF133</text></g><g class="node" transform="translate(-252.7380559585683,136.0880026505258)"><circle class="outline" cx="0" cy="0" r="25" fill="#6DCE9E" stroke="#60B58B" stroke-width="2px"/><text text-anchor="middle" pointer-events="none" y="5" font-size="10px" fill="#FFFFFF" font-family="sans-serif"> FHL2</text></g><g class="node" transform="translate(-137.8529156065502,135.5955065983441)"><circle class="outline" cx="0" cy="0" r="25" fill="#A5ABB6" stroke="#9AA1AC" stroke-width="2px"/><text text-anchor="middle" pointer-events="none" y="5" font-size="10px" fill="#FFFFFF" font-family="sans-serif"> endopla…</text></g><g class="node" transform="translate(-369.5408943582944,135.53925991974182)"><circle class="outline" cx="0" cy="0" r="25" fill="#6DCE9E" stroke="#60B58B" stroke-width="2px"/><text text-anchor="middle" pointer-events="none" y="5" font-size="10px" fill="#FFFFFF" font-family="sans-serif"> ALB</text></g><g class="node" transform="translate(-431.2344379519194,-27.930369912683148)"><circle class="outline" cx="0" cy="0" r="25" fill="#FF756E" stroke="#E06760" stroke-width="2px"/><text text-anchor="middle" pointer-events="none" y="5" font-size="10px" fill="#FFFFFF" font-family="sans-serif"> Cefotetan</text></g><g class="node" transform="translate(-77.98578660297645,135.84151699259516)"><circle class="outline" cx="0" cy="0" r="25" fill="#FB95AF" stroke="#E0849B" stroke-width="2px"/><text text-anchor="middle" pointer-events="none" y="0" font-size="10px" fill="#FFFFFF" font-family="sans-serif"> protein</text><text text-anchor="middle" pointer-events="none" y="10" font-size="10px" fill="#FFFFFF" font-family="sans-serif"> modific…</text></g><g class="node" transform="translate(-428.48781330434275,135.75380279178987)"><circle class="outline" cx="0" cy="0" r="25" fill="#A5ABB6" stroke="#9AA1AC" stroke-width="2px"/><text text-anchor="middle" pointer-events="none" y="5" font-size="10px" fill="#FFFFFF" font-family="sans-serif"> Stevens…</text></g><g class="node" transform="translate(459.8791455838885,138.14304181209772)"><circle class="outline" cx="0" cy="0" r="25" fill="#A5ABB6" stroke="#9AA1AC" stroke-width="2px"/><text text-anchor="middle" pointer-events="none" y="0" font-size="10px" fill="#FFFFFF" font-family="sans-serif"> Oral</text><text text-anchor="middle" pointer-events="none" y="10" font-size="10px" fill="#FFFFFF" font-family="sans-serif"> Manifes…</text></g><g class="node" transform="translate(-18.255559295431624,134.74519798122083)"><circle class="outline" cx="0" cy="0" r="25" fill="#6DCE9E" stroke="#60B58B" stroke-width="2px"/><text text-anchor="middle" pointer-events="none" y="5" font-size="10px" fill="#FFFFFF" font-family="sans-serif"> CERS6</text></g><g class="node" transform="translate(-20.456533459758504,-29.16246670397308)"><circle class="outline" cx="0" cy="0" r="25" fill="#DE9BF9" stroke="#BF85D6" stroke-width="2px"/><text text-anchor="middle" pointer-events="none" y="5" font-size="10px" fill="#FFFFFF" font-family="sans-serif"> HUANG…</text></g><g class="node" transform="translate(-488.11761681137995,135.47825281485441)"><circle class="outline" cx="0" cy="0" r="25" fill="#FF756E" stroke="#E06760" stroke-width="2px"/><text text-anchor="middle" pointer-events="none" y="5" font-size="10px" fill="#FFFFFF" font-family="sans-serif"> Cefoxitin</text></g><g class="node" transform="translate(-669.2900337499663,134.6942401295118)"><circle class="outline" cx="0" cy="0" r="25" fill="#6DCE9E" stroke="#60B58B" stroke-width="2px"/><text text-anchor="middle" pointer-events="none" y="5" font-size="10px" fill="#FFFFFF" font-family="sans-serif"> ADI1</text></g><g class="node" transform="translate(634.0117923584933,141.1617587051402)"><circle class="outline" cx="0" cy="0" r="25" fill="#6DCE9E" stroke="#60B58B" stroke-width="2px"/><text text-anchor="middle" pointer-events="none" y="5" font-size="10px" fill="#FFFFFF" font-family="sans-serif"> SNX10</text></g><g class="node" transform="translate(-723.5904883042882,134.10072800167424)"><circle class="outline" cx="0" cy="0" r="25" fill="#68BDF6" stroke="#5CA8DB" stroke-width="2px"/><text text-anchor="middle" pointer-events="none" y="5" font-size="10px" fill="#FFFFFF" font-family="sans-serif"> asthma</text></g><g class="node" transform="translate(-549.1090176345891,-27.42532407030029)"><circle class="outline" cx="0" cy="0" r="25" fill="#FF756E" stroke="#E06760" stroke-width="2px"/><text text-anchor="middle" pointer-events="none" y="5" font-size="10px" fill="#FFFFFF" font-family="sans-serif"> Aprepitant</text></g><g class="node" transform="translate(-547.8766304867229,136.47829277410585)"><circle class="outline" cx="0" cy="0" r="25" fill="#68BDF6" stroke="#5CA8DB" stroke-width="2px"/><text text-anchor="middle" pointer-events="none" y="0" font-size="10px" fill="#FFFFFF" font-family="sans-serif"> Colon</text><text text-anchor="middle" pointer-events="none" y="10" font-size="10px" fill="#FFFFFF" font-family="sans-serif"> cancer</text></g><g class="node" transform="translate(-194.865781225928,134.5053927484456)"><circle class="outline" cx="0" cy="0" r="25" fill="#A5ABB6" stroke="#9AA1AC" stroke-width="2px"/><text text-anchor="middle" pointer-events="none" y="0" font-size="10px" fill="#FFFFFF" font-family="sans-serif"> ligase</text><text text-anchor="middle" pointer-events="none" y="10" font-size="10px" fill="#FFFFFF" font-family="sans-serif"> activity</text></g><g class="node" transform="translate(514.9426728995765,138.72578391625044)"><circle class="outline" cx="0" cy="0" r="25" fill="#68BDF6" stroke="#5CA8DB" stroke-width="2px"/><text text-anchor="middle" pointer-events="none" y="5" font-size="10px" fill="#FFFFFF" font-family="sans-serif"> periodon…</text></g><g class="node" transform="translate(208.91457627413536,139.49338251344867)"><circle class="outline" cx="0" cy="0" r="25" fill="#6DCE9E" stroke="#60B58B" stroke-width="2px"/><text text-anchor="middle" pointer-events="none" y="5" font-size="10px" fill="#FFFFFF" font-family="sans-serif"> CREBBP</text></g><g class="node" transform="translate(38.6057599608601,135.33166349827576)"><circle class="outline" cx="0" cy="0" r="25" fill="#6DCE9E" stroke="#60B58B" stroke-width="2px"/><text text-anchor="middle" pointer-events="none" y="5" font-size="10px" fill="#FFFFFF" font-family="sans-serif"> CEP55</text></g></g></svg>